<?xml version="1.0" standalone="no"?>
<!DOCTYPE svg PUBLIC "-//W3C//DTD SVG 20010904//EN"
 "http://www.w3.org/TR/2001/REC-SVG-20010904/DTD/svg10.dtd">
<svg version="1.0" xmlns="http://www.w3.org/2000/svg"
 width="351.000000pt" height="248.000000pt" viewBox="0 0 351.000000 248.000000"
 preserveAspectRatio="xMidYMid meet">

<g transform="translate(0.000000,248.000000) scale(0.100000,-0.100000)"
fill="#000000" stroke="none">
<path d="M655 1881 c-71 -32 -140 -137 -122 -185 11 -28 27 -17 48 32 29 67
72 108 129 122 92 22 175 -24 201 -111 25 -82 72 -77 49 5 -15 55 -72 124
-117 142 -46 20 -140 17 -188 -5z"/>
<path d="M707 1640 c-380 -5 -389 -5 -406 -26 -26 -32 -165 -864 -150 -897 20
-43 103 -64 129 -33 20 26 8 61 -23 64 -19 2 -27 9 -27 22 0 11 29 190 65 399
36 209 65 383 65 386 0 3 174 5 388 5 l387 0 64 -373 c36 -204 67 -384 69
-399 4 -28 4 -28 -59 -29 -97 -2 -123 -10 -127 -39 -3 -14 3 -29 14 -37 22
-16 168 -18 211 -3 59 21 59 23 -17 462 -38 222 -74 420 -80 441 -9 30 -19 42
-45 53 -19 8 -42 13 -52 12 -10 -2 -193 -5 -406 -8z"/>
<path d="M1583 1634 c-10 -28 4 -278 18 -307 27 -57 130 -78 183 -36 l27 21 6
-21 c5 -19 12 -22 47 -19 l41 3 3 188 2 187 -50 0 -50 0 0 -139 c0 -99 -4
-142 -13 -149 -25 -21 -66 -25 -92 -8 -25 16 -25 18 -25 156 l0 140 -45 0
c-32 0 -47 -5 -52 -16z"/>
<path d="M1960 1610 l0 -40 80 0 c44 0 80 -3 80 -7 0 -3 -38 -56 -85 -118 -66
-86 -85 -118 -85 -143 l0 -32 155 0 155 0 0 40 0 40 -90 0 c-49 0 -90 3 -90 7
0 3 38 56 85 118 66 86 85 118 85 143 l0 32 -145 0 -145 0 0 -40z"/>
<path d="M2374 1636 c-124 -54 -123 -291 1 -351 49 -23 144 -17 182 11 58 43
68 68 68 164 0 98 -12 124 -75 168 -38 26 -125 30 -176 8z m118 -67 c11 -6 26
-26 34 -44 41 -99 -17 -208 -94 -176 -37 15 -52 48 -52 112 0 95 48 142 112
108z"/>
<path d="M2674 1637 c-2 -7 -3 -91 -2 -187 l3 -175 48 -3 47 -3 0 140 c0 133
1 141 22 155 12 9 32 16 43 16 11 0 31 -7 43 -16 21 -14 22 -22 22 -155 l0
-139 46 0 45 0 -3 166 -3 166 -28 24 c-36 31 -107 33 -154 4 -32 -19 -32 -19
-38 0 -5 16 -15 20 -46 20 -23 0 -42 -5 -45 -13z"/>
<path d="M3120 1628 c-109 -73 -106 -273 5 -335 69 -39 182 -27 227 24 17 19
17 21 -7 43 -24 23 -25 23 -45 5 -31 -28 -102 -26 -134 4 -14 14 -26 33 -26
43 0 16 11 18 121 18 l122 0 -7 56 c-7 64 -23 99 -61 134 -21 20 -39 25 -93
28 -57 3 -72 0 -102 -20z m140 -68 c11 -11 20 -31 20 -45 0 -24 -2 -25 -70
-25 -64 0 -70 2 -70 20 0 29 44 70 75 70 14 0 34 -9 45 -20z"/>
<path d="M790 1338 c-58 -5 -166 -8 -241 -5 l-136 3 30 -90 c16 -50 36 -99 45
-108 12 -15 37 -18 156 -20 l141 -3 -211 -107 c-116 -58 -225 -118 -242 -133
-40 -34 -41 -61 -5 -179 l27 -89 206 9 c113 5 275 9 360 8 l155 0 -31 90 c-44
127 -45 128 -216 124 -76 -2 -137 1 -135 6 1 4 101 58 222 120 271 137 267
132 230 261 -39 134 -29 125 -148 124 -56 -1 -149 -6 -207 -11z"/>
<path d="M1950 1101 c0 -49 -1 -51 -27 -51 -25 0 -28 -3 -27 -32 1 -28 5 -33
27 -36 l27 -3 0 -115 c0 -135 11 -166 65 -184 19 -6 49 -9 65 -5 26 6 30 11
30 40 0 29 -4 34 -27 37 l-28 3 -3 113 -3 112 31 0 c28 0 30 3 30 35 0 32 -2
35 -29 35 -28 0 -30 2 -33 48 l-3 47 -47 3 -48 3 0 -50z"/>
<path d="M1654 1046 c-43 -19 -74 -62 -74 -103 0 -49 42 -85 126 -109 37 -10
72 -27 78 -37 31 -49 -63 -78 -108 -34 -32 32 -106 42 -106 15 0 -9 14 -33 30
-52 40 -45 109 -63 180 -46 67 16 100 51 100 104 0 70 -20 87 -142 120 -60 17
-81 43 -58 71 25 30 110 10 110 -26 0 -5 20 -9 45 -9 40 0 45 2 45 23 0 72
-137 122 -226 83z"/>
<path d="M2216 1040 c-81 -41 -114 -138 -85 -245 40 -144 253 -166 318 -31 29
60 29 157 -2 211 -42 76 -151 106 -231 65z m124 -70 c45 -24 51 -152 8 -197
-29 -31 -72 -30 -103 2 -21 21 -25 33 -25 88 0 50 5 70 21 91 22 28 64 35 99
16z"/>
<path d="M2655 1048 c-11 -6 -26 -18 -32 -26 -11 -14 -13 -13 -13 6 0 19 -5
22 -45 22 l-45 0 0 -185 0 -185 45 0 45 0 0 123 c0 140 9 160 75 161 35 1 35
1 35 49 0 42 -2 47 -22 47 -13 0 -32 -6 -43 -12z"/>
<path d="M2835 1046 c-106 -46 -140 -228 -58 -318 62 -68 217 -70 273 -3 11
13 9 19 -10 40 -22 23 -25 24 -41 9 -10 -9 -38 -19 -63 -21 -40 -5 -48 -2 -76
25 -55 55 -46 62 90 62 l120 0 0 39 c0 49 -17 100 -44 130 -43 48 -128 65
-191 37z m119 -82 c9 -8 16 -19 16 -24 0 -5 3 -15 6 -24 5 -14 -5 -16 -70 -16
-84 0 -92 7 -55 54 24 30 78 36 103 10z"/>
</g>
</svg>
