<svg width="152" height="23" viewBox="0 0 152 23" fill="none" xmlns="http://www.w3.org/2000/svg">
<g clip-path="url(#clip0_151_463)">
<path d="M102.402 11.6674C101.836 12.2863 101.11 12.7379 100.305 12.9731C99.3193 13.2939 98.2862 13.4439 97.2502 13.4165C96.2842 13.4367 95.3362 13.1537 94.539 12.6073C93.788 12.0628 93.2332 11.2898 92.9574 10.4038C92.6346 9.37296 92.5476 8.28271 92.7027 7.21369L92.7736 6.68607C93.0438 4.70124 93.7416 3.12873 94.8668 1.96857C95.396 1.4068 96.0393 0.964991 96.7534 0.672846C97.4675 0.380702 98.2359 0.245013 99.0068 0.274895C100.433 0.297064 101.53 0.680582 102.298 1.42545C103.066 2.17032 103.494 3.24477 103.581 4.64878H100.701C100.658 3.96599 100.49 3.46718 100.196 3.15238C100.031 2.98849 99.8337 2.85997 99.617 2.77461C99.4004 2.68925 99.1686 2.64883 98.9359 2.65581C98.5509 2.63677 98.1672 2.7137 97.8193 2.87969C97.4713 3.04568 97.17 3.29553 96.9423 3.60684C96.4151 4.2719 96.0548 5.22145 95.8614 6.45551C95.7132 7.26537 95.6545 8.08911 95.6864 8.91182C95.775 10.3217 96.41 11.0356 97.5913 11.0533C98.2559 11.0781 98.9119 10.8969 99.4697 10.5346L99.864 8.53937H97.784L98.154 6.42228H103.235L102.402 11.6674Z" fill="white"/>
<path d="M111.287 10.8427H107.205L106.073 13.2413H102.764L109.531 0.450012H112.357L114.718 13.2413H111.595L111.287 10.8427ZM108.328 8.47065H110.986L110.425 4.0613L108.328 8.47065Z" fill="white"/>
<path d="M121.855 0.450012L123.076 9.31748L127.36 0.450012H131.362L129.147 13.2413H126.13L126.675 10.1045L127.973 4.32287L123.501 13.2413H121.507L120.059 3.99034L119.25 10.4038L118.75 13.2413H115.748L117.963 0.450012H121.855Z" fill="white"/>
<path d="M139.764 7.81222H135.066L134.532 10.8693H140.087L139.675 13.2413H131.116L133.331 0.450012H141.908L141.494 2.83093H135.927L135.462 5.52664H140.158L139.764 7.81222Z" fill="white"/>
<path d="M147.989 9.77858C148.117 9.11795 147.76 8.60587 146.916 8.24231L145.477 7.64374C143.459 6.73778 142.5 5.50225 142.597 3.93714C142.631 3.23737 142.89 2.56727 143.335 2.0262C143.832 1.43382 144.477 0.984012 145.204 0.722682C146.036 0.406678 146.922 0.256076 147.811 0.279309C149.074 0.301478 150.091 0.670955 150.861 1.38774C151.632 2.10453 152.011 3.06517 151.998 4.26967H149.016C149.053 3.85137 148.943 3.43328 148.704 3.08809C148.478 2.79251 148.109 2.6388 147.596 2.62698C147.128 2.60652 146.665 2.72865 146.267 2.97725C146.088 3.08287 145.934 3.22648 145.815 3.39804C145.697 3.56959 145.618 3.76494 145.583 3.9704C145.472 4.56156 145.907 5.04188 146.888 5.41136C147.625 5.67436 148.34 5.99763 149.025 6.37791C150.422 7.21589 151.077 8.34576 150.99 9.76751C150.956 10.4721 150.708 11.1496 150.279 11.7095C149.816 12.2925 149.203 12.7391 148.507 13.0019C147.695 13.3168 146.828 13.4675 145.957 13.4453C145.303 13.4407 144.654 13.3306 144.035 13.1194C143.471 12.9342 142.954 12.6321 142.515 12.2327C141.66 11.4405 141.25 10.4008 141.286 9.11352H144.298C144.263 9.76971 144.388 10.2663 144.675 10.6033C144.961 10.9402 145.444 11.1087 146.123 11.1087C146.569 11.1256 147.008 11.0041 147.382 10.7607C147.545 10.6479 147.684 10.5024 147.788 10.3333C147.892 10.1643 147.961 9.97539 147.989 9.77858Z" fill="white"/>
<path d="M38.664 0.498797C38.664 0.498797 38.4558 -0.166264 31.7973 0.359134C25.1388 0.884531 19.9046 0.955471 17.705 0.359134C17.705 0.359134 18.9743 3.83295 19.59 5.90129C19.6984 6.26753 19.9195 6.59022 20.2217 6.82346C20.524 7.05669 20.892 7.18858 21.2735 7.20037C23.7101 7.28018 28.8224 7.3622 31.7375 6.78804C35.6603 6.01213 38.5754 1.42101 38.664 0.498797Z" fill="url(#paint0_linear_151_463)"/>
<path d="M82.4602 22.3283C79.5688 22.3283 77.3154 21.4659 75.6999 19.7412C74.0843 18.0165 73.2758 15.5491 73.2744 12.3391V10.6277C73.2744 7.22847 74.0164 4.60812 75.5005 2.76665C76.9846 0.925168 79.1125 0.00295582 81.8843 0C84.5867 0 86.6209 0.864567 87.9868 2.59372C89.3528 4.32288 90.049 6.88264 90.0756 10.273V13.0352H78.8807C78.9604 14.6461 79.3119 15.8284 79.9351 16.5822C80.5582 17.3359 81.5181 17.7091 82.8146 17.7017C83.6942 17.7224 84.5682 17.5577 85.38 17.2182C86.1917 16.8786 86.9229 16.3719 87.5261 15.7309L89.7411 19.1338C89.0515 20.09 88.0511 20.8629 86.7397 21.4526C85.392 22.0467 83.9328 22.3453 82.4602 22.3283ZM78.9161 9.11574H84.5446V8.59257C84.518 7.29348 84.3054 6.30995 83.9067 5.64193C83.508 4.97391 82.8191 4.63916 81.84 4.63768C80.858 4.63768 80.1455 4.99239 79.7025 5.70179C79.2595 6.41119 78.9988 7.54916 78.9206 9.11574H78.9161Z" fill="white"/>
<path d="M60.9785 0.399033L61.138 2.52722C62.4095 0.842402 64.073 0 66.1286 0C69.8203 0 71.7223 2.59372 71.8346 7.78119V21.9315H66.1884V8.20018C66.1884 6.97942 66.006 6.09268 65.6413 5.53994C65.2765 4.9872 64.6371 4.71231 63.723 4.71527C62.7011 4.71527 61.9052 5.23918 61.3352 6.28702V21.9292H55.689V0.396814L60.9785 0.399033Z" fill="white"/>
<path d="M36.79 10.4702C36.79 7.20701 37.5594 4.64654 39.0981 2.7888C40.6369 0.931066 42.7641 0.00219727 45.4797 0.00219727C48.2235 0.00219727 50.3647 0.931066 51.9034 2.7888C53.4422 4.64654 54.2108 7.22032 54.2093 10.5102V11.8824C54.2093 15.1604 53.4473 17.7209 51.9234 19.5638C50.3994 21.4068 48.2685 22.329 45.5307 22.3305C42.7737 22.3305 40.6324 21.4053 39.107 19.555C37.5816 17.7046 36.8092 15.1331 36.79 11.8403V10.4702ZM42.4385 11.8868C42.4385 15.7575 43.4655 17.6936 45.5196 17.695C47.4157 17.695 48.4369 16.0797 48.583 12.849L48.603 10.4658C48.603 8.49134 48.3305 7.02671 47.7856 6.07198C47.2407 5.11725 46.4721 4.63989 45.4797 4.63989C44.5243 4.63989 43.7786 5.11725 43.2425 6.07198C42.7065 7.02671 42.4355 8.49134 42.4296 10.4658L42.4385 11.8868Z" fill="white"/>
<path d="M10.7165 19.9607C10.1915 20.7133 9.48803 21.3236 8.66917 21.7368C7.85031 22.15 6.94171 22.3533 6.02498 22.3283C4.04914 22.3283 2.55102 21.6485 1.53061 20.2888C0.510203 18.9291 0 16.9487 0 14.3476V0.399048H5.62627V14.4872C5.65285 16.5844 6.34911 17.633 7.71507 17.633C8.99981 17.633 9.92718 17.0758 10.4972 15.9614V0.399048H16.1655V21.9315H10.876L10.7165 19.9607Z" fill="white"/>
<path d="M16.0991 22.0844C16.0991 22.0844 16.3206 22.7495 23.2206 22.2219C30.1205 21.6942 35.554 21.6277 37.84 22.2219C37.84 22.2219 36.6173 18.9919 35.9572 16.9014C35.82 16.4669 35.5513 16.0858 35.1881 15.811C34.825 15.5361 34.3855 15.3811 33.9304 15.3673C31.3299 15.2897 26.2308 15.2277 23.2981 15.7863C19.2135 16.5689 16.1922 21.1711 16.0991 22.0844Z" fill="url(#paint1_linear_151_463)"/>
<g style="mix-blend-mode:multiply">
<path d="M39.7715 7.05407C39.375 4.99016 38.108 1.3412 38.108 1.3412C38.108 1.3412 38.108 1.3678 38.108 1.38332C37.8687 0.647317 37.696 0.146301 37.696 0.146301C37.5365 1.973 24.2173 8.79208 24.2173 8.79208V8.80759C21.1162 10.3971 16.7902 12.5231 16.7902 12.5231C16.7902 12.5231 13.0644 14.0306 13.4676 16.0922C13.8707 18.1539 15.1178 21.8162 15.1178 21.8162C15.1167 21.8022 15.1167 21.7881 15.1178 21.7741C15.357 22.5101 15.532 23.0089 15.532 23.0089C15.6893 21.1844 29.0085 14.3631 29.0085 14.3631V14.3498C32.1096 12.7603 36.4356 10.6343 36.4356 10.6343C36.4356 10.6343 40.1635 9.11576 39.7715 7.05407Z" fill="#E8E9EA"/>
</g>
<g style="mix-blend-mode:multiply">
<path d="M41.3221 6.63285C40.9256 4.56895 39.6586 0.919983 39.6586 0.919983C39.4991 2.74446 26.1799 9.56577 26.1799 9.56577V9.57908C23.0788 11.1686 18.7528 13.2946 18.7528 13.2946C18.7528 13.2946 15.027 14.802 15.4302 16.8659C15.8333 18.9298 17.0959 22.5766 17.0959 22.5766C17.2532 20.7521 30.5724 13.9308 30.5724 13.9308V13.9175C33.6734 12.328 37.9995 10.202 37.9995 10.202C37.9995 10.202 41.7075 8.69454 41.3221 6.63285Z" fill="#E8E9EA"/>
</g>
<path d="M40.3297 6.21167C39.9332 4.14776 38.664 0.49881 38.664 0.49881C38.5045 2.32329 25.1875 9.14458 25.1875 9.14458V9.1579C22.0864 10.7474 17.7604 12.8734 17.7604 12.8734C17.7604 12.8734 14.0347 14.3808 14.4378 16.4425C14.8409 18.5042 16.1013 22.1554 16.1013 22.1554C16.2608 20.3309 29.58 13.5096 29.58 13.5096V13.4963C32.6811 11.9068 37.0071 9.78082 37.0071 9.78082C37.0071 9.78082 40.7262 8.27336 40.3297 6.21167Z" fill="white"/>
</g>
<defs>
<linearGradient id="paint0_linear_151_463" x1="25.0214" y1="-3.86842" x2="31.4995" y2="7.34213" gradientUnits="userSpaceOnUse">
<stop stop-color="white"/>
<stop offset="0.33" stop-color="#FBFCFC"/>
<stop offset="0.62" stop-color="#F1F1F2"/>
<stop offset="0.9" stop-color="#DEE0E1"/>
<stop offset="1" stop-color="#D6D8D9"/>
</linearGradient>
<linearGradient id="paint1_linear_151_463" x1="23.5595" y1="15.17" x2="30.1861" y2="26.6421" gradientUnits="userSpaceOnUse">
<stop stop-color="#D6D8D9"/>
<stop offset="0.31" stop-color="#E8E9EA"/>
<stop offset="0.7" stop-color="#F9F9F9"/>
<stop offset="1" stop-color="white"/>
</linearGradient>
<clipPath id="clip0_151_463">
<rect width="152" height="23" fill="white"/>
</clipPath>
</defs>
</svg>
